<svg width="75" height="92" viewBox="0 0 75 92" fill="none" xmlns="http://www.w3.org/2000/svg">
<path d="M57.8122 19.5432C55.3513 21.1866 53.0622 22.7177 50.6844 24.3022C51.3938 25.7155 51.9869 26.936 53.6331 27.6373C55.4566 28.4135 56.8035 29.9338 57.8566 31.6094C58.5439 32.7068 58.3 34.5216 57.452 35.4745C56.2049 36.877 54.5033 37.6211 52.8959 38.4937C50.2742 39.9177 47.5916 41.2453 44.8591 42.6478C45.0586 44.8962 45.2415 46.984 45.4577 49.4465C44.6595 48.9593 44.1108 48.7345 43.7117 48.3651C42.0268 46.802 40.375 45.2013 39.7266 42.9208C39.455 41.9733 39.4993 41.7538 40.3972 41.347C41.1344 41.0151 41.9492 40.8491 42.6919 40.5172C43.3625 40.2174 44.1053 39.9177 44.5986 39.4198C46.35 37.6425 48.0073 35.7796 49.7477 33.906C48.4285 33.1512 47.065 32.5034 45.43 32.5088C44.6928 32.5088 44.1441 32.7068 43.5898 33.1993C40.7132 35.7635 37.7977 38.2903 34.8823 40.817C32.5322 42.8512 30.1488 44.8534 27.7877 46.8769C26.3521 48.1135 24.9665 49.409 23.4921 50.5974C22.2395 51.6092 21.458 52.9421 20.682 54.2537C20.2607 54.9603 20.1942 55.8811 20.0501 56.7162C19.9614 57.2301 20.0335 57.7708 20.0335 58.2633C19.0968 58.9217 18.415 58.4132 17.5504 57.8885C17.5504 55.137 17.5227 52.2783 17.5615 49.4197C17.5726 48.4133 18.2044 47.8565 19.2298 47.7655C19.5735 47.7388 19.9226 47.7441 20.2663 47.7655C21.4192 47.8298 22.5499 47.8619 22.6607 46.3202C24.3956 43.4241 26.4464 40.7902 29.4006 38.9273C29.5724 38.8202 29.7221 38.6168 29.905 38.5901C31.8338 38.3385 32.3992 36.7164 33.2694 35.437C34.134 34.1736 34.6439 32.7604 34.9599 31.2668C35.6361 28.0602 36.9885 25.1159 38.9561 22.4661C40.0314 21.0207 41.2342 19.6556 42.4591 18.3226C44.3325 16.2938 46.278 14.3238 48.3454 12.1664C46.6216 11.5775 45.0586 10.9887 43.4512 10.5336C43.0965 10.4319 42.4646 10.6889 42.1875 10.9833C40.0979 13.1782 37.249 14.6235 35.5917 17.252C35.1539 17.9479 34.3446 17.7659 33.6906 17.6481C33.0643 17.5357 32.9202 16.995 32.8925 16.4115C32.837 15.3034 32.8869 14.4255 34.1728 13.7938C36.34 12.7285 37.831 10.887 39.2831 9.03474C41.3007 6.45982 43.5454 5.65148 47.0706 6.29922C49.0105 6.65254 50.9671 6.90414 52.8017 7.6536C53.489 7.93732 54.204 8.16216 54.9356 8.42447C56.5707 7.78743 56.5984 6.44912 56.5707 4.98232C56.5153 2.35923 58.5716 0.587301 61.2099 0.903143C61.8085 0.978088 62.457 1.11192 62.9614 1.4117C63.8537 1.94167 64.5632 2.61618 64.4579 3.82067C64.3415 5.19645 64.8403 6.41164 65.9101 7.36987C65.317 8.01762 64.868 8.6493 64.8292 9.57006C64.7461 11.3688 64.4135 11.6364 62.4016 11.6846C61.6644 11.7007 61.0547 11.8238 60.5836 12.4126C60.2455 12.8355 60.0958 13.3495 60.506 13.676C61.7364 14.6557 62.3351 15.9404 62.6732 17.3858C62.6953 17.4875 62.8782 17.5518 62.9115 17.5785C67.2957 17.1021 69.7788 14.3077 71.6911 10.9619C71.9793 11.0208 72.1178 11.0261 72.2398 11.0743C74.3072 11.872 74.7783 13.3655 72.467 14.8537C71.1312 15.7156 70.0615 16.7863 69.1858 18.0871C68.2879 19.4147 67.2015 20.5656 65.8214 21.5239C64.6962 22.3055 63.4602 22.5731 62.2297 22.8675C60.905 23.1834 59.6469 22.9746 59.0095 21.5078C58.749 20.9083 58.3277 20.3676 57.8178 19.5539L57.8122 19.5432Z" fill="#D2F306"/>
<path d="M44.2715 70.5758C42.5921 77.6903 40.9847 84.521 39.3607 91.4H35.0098V84.0446C34.9211 84.0446 34.8324 84.0339 34.7493 84.0285C34.1451 86.4696 33.5354 88.9053 32.9202 91.3839H28.4861C30.1322 84.4675 31.7728 77.5886 33.4135 70.7043H38.3243C37.6314 73.1882 38.025 75.565 38.1136 77.9579C38.5848 75.9183 39.0781 73.8895 39.527 71.8445C39.7654 70.7578 39.8651 70.6133 40.9737 70.5812C41.9325 70.549 42.897 70.5758 44.2771 70.5758H44.2715Z" fill="white"/>
<path d="M9.84056 63.3275C5.98287 60.6991 3.44433 57.0695 1.83142 52.9047C-0.745914 46.2506 -0.701573 39.5055 2.59631 33.1084C9.50246 19.7092 24.7115 16.2777 34.4389 20.2552C33.7516 21.3901 33.0698 22.525 32.3715 23.6438C32.2717 23.8044 32.0666 23.9061 31.8283 24.0988C27.1891 22.707 22.5554 23.2263 18.0271 24.7359C13.011 26.4061 8.88168 29.4093 6.19349 33.7989C-0.330215 44.4519 1.59309 54.2698 9.84056 63.3275Z" fill="white"/>
<path d="M11.1874 91.3946H6.88632C7.47384 88.9482 8.03365 86.5981 8.60455 84.248C8.77082 83.5628 9.17544 82.8294 8.40501 82.2887C7.95051 81.9729 7.49601 82.6313 7.21334 84.0018C6.78655 86.0628 6.35977 88.1291 5.89419 90.1848C5.79442 90.6184 5.51174 91.0145 5.33992 91.3786H0.900253C1.06099 90.7683 1.19401 90.2919 1.30487 89.8154C2.67945 84.1195 4.04848 78.4237 5.41198 72.7278C5.48957 72.4066 5.47849 72.0694 5.50066 71.7375C5.56163 70.9345 5.99395 70.5597 6.84198 70.5705C8.98145 70.5919 11.1265 70.5276 13.2659 70.5972C14.8955 70.6507 16.0095 71.8499 15.8211 73.3541C15.6493 74.7192 15.4276 76.1057 14.9841 77.4066C14.5851 78.5789 14.1417 79.8476 12.6451 80.3669C13.4156 81.5982 13.5652 82.7705 13.0886 84.1624C12.4567 86.0253 12.1851 88.006 11.7251 89.9278C11.6031 90.431 11.3648 90.9021 11.1763 91.3946H11.1874ZM8.70986 78.3273C9.46366 78.0918 10.0124 78.0811 10.1399 77.8562C10.6775 76.898 11.2096 75.8916 10.7329 74.7567C10.0567 74.489 9.54125 74.6764 9.36943 75.2653C9.10893 76.1271 8.98145 77.0265 8.7154 78.3273H8.70986Z" fill="white"/>
<path d="M29.9659 70.5705C29.9659 71.1111 30.0269 71.443 29.9549 71.7482C29.4172 74.0554 28.8463 76.3573 28.2976 78.6646C27.7489 80.9718 27.2556 83.2844 26.657 85.581C25.9032 88.4932 24.4676 90.8807 21.1698 91.6783C19.6289 92.0477 18.1545 91.8764 16.8631 90.9824C15.2945 89.8903 15.1837 88.2308 15.5329 86.6356C16.4363 82.5189 17.495 78.4397 18.4926 74.3445C18.7864 73.1347 19.0746 71.9248 19.3684 70.6936H23.8247C23.1817 73.3916 22.5831 75.9451 21.9734 78.4879C21.3582 81.0468 20.6986 83.6003 20.1166 86.1645C20.0113 86.6195 20.2053 87.1441 20.2663 87.6741C21.5079 87.5831 21.8626 86.8818 22.051 86.1002C23.1817 81.3626 24.2847 76.6143 25.4099 71.8713C25.7036 70.6347 25.7424 70.6026 27.0283 70.5705C27.9207 70.549 28.8186 70.5705 29.9659 70.5705Z" fill="white"/>
<path d="M9.97358 60.0031C2.84018 54.5696 1.92564 42.4444 7.06369 35.0141C12.6839 26.8825 23.9023 24.0185 31.1354 27.1448C30.5368 28.1138 29.9438 29.0774 29.3396 30.0624C20.621 28.8258 13.1717 30.8118 8.34958 38.4027C3.61615 45.8598 4.85217 53.0974 9.97358 60.0031Z" fill="white"/>
<path d="M72.9548 74.6229H70.4273C69.086 80.2063 67.7502 85.7523 66.3812 91.4642H61.8916C63.0334 85.7362 64.6186 80.3401 65.7272 74.7085C64.8237 74.6603 64.153 74.6282 63.3604 74.5854C63.6376 73.2631 63.9036 72.0105 64.1586 70.7792C66.1373 70.4848 72.2287 70.5116 73.8915 70.8167C73.5977 72.0158 73.2984 73.215 72.9548 74.6175V74.6229Z" fill="white"/>
<path d="M61.6533 70.5812C60.0847 77.6635 58.3831 84.4568 56.7979 91.3571H52.4026C52.4691 90.9289 52.4913 90.6184 52.5633 90.3186C53.6109 85.8379 54.664 81.3626 55.7171 76.8819C56.1384 75.0886 56.5596 73.3006 56.9808 71.5073C57.1194 70.9184 57.4741 70.5812 58.1282 70.5812C59.1591 70.5812 60.1956 70.5812 61.6533 70.5812Z" fill="white"/>
<path d="M28.2422 32.1716C28.1036 32.5088 28.026 32.7551 27.9096 32.9852C27.0782 34.6073 27.0893 34.5216 25.1161 34.2379C22.7605 33.8953 20.4658 34.361 18.2876 35.2122C13.1163 37.2304 10.1787 41.1436 9.36943 46.2881C8.70431 50.5011 9.48583 54.6231 12.5786 58.0117C12.7505 58.1991 12.8613 58.4346 13.083 58.7772C11.5311 57.9796 11.1098 57.546 10.0401 55.6938C8.89276 53.7077 8.34404 51.5771 7.90617 49.3341C7.34636 46.4701 7.81194 43.7988 8.84288 41.2132C10.5722 36.8717 13.6428 33.7293 18.2543 32.0859C21.336 30.9885 24.4233 31.0634 27.5549 31.7647C27.7433 31.8075 27.9041 31.9628 28.2422 32.1662V32.1716Z" fill="white"/>
<path d="M51.9259 82.7009C51.1832 85.8593 51.7597 85.3936 48.4562 85.4471C47.3643 85.4632 46.2724 85.4471 45.1473 85.4471C44.6761 84.43 44.9588 83.6003 45.5463 82.6956H51.9315L51.9259 82.7009Z" fill="white"/>
</svg>
